<?xml version="1.0" standalone="no"?>
<svg xmlns:xlink="http://www.w3.org/1999/xlink" id="wave" style="transform:rotate(180deg); transition: 0.3s" viewBox="0 0 1440 100" version="1.1" xmlns="http://www.w3.org/2000/svg"><defs><linearGradient id="sw-gradient-0" x1="0" x2="0" y1="1" y2="0"><stop stop-color="rgba(255, 249, 234, 1)" offset="0%"/><stop stop-color="rgba(255, 249, 234, 1)" offset="100%"/></linearGradient></defs><path style="transform:translate(0, 0px); opacity:1" fill="url(#sw-gradient-0)" d="M0,10L48,21.7C96,33,192,57,288,55C384,53,480,27,576,28.3C672,30,768,60,864,65C960,70,1056,50,1152,46.7C1248,43,1344,57,1440,51.7C1536,47,1632,23,1728,15C1824,7,1920,13,2016,23.3C2112,33,2208,47,2304,58.3C2400,70,2496,80,2592,85C2688,90,2784,90,2880,85C2976,80,3072,70,3168,55C3264,40,3360,20,3456,18.3C3552,17,3648,33,3744,35C3840,37,3936,23,4032,18.3C4128,13,4224,17,4320,26.7C4416,37,4512,53,4608,58.3C4704,63,4800,57,4896,53.3C4992,50,5088,50,5184,51.7C5280,53,5376,57,5472,55C5568,53,5664,47,5760,51.7C5856,57,5952,73,6048,68.3C6144,63,6240,37,6336,35C6432,33,6528,57,6624,66.7C6720,77,6816,73,6864,71.7L6912,70L6912,100L6864,100C6816,100,6720,100,6624,100C6528,100,6432,100,6336,100C6240,100,6144,100,6048,100C5952,100,5856,100,5760,100C5664,100,5568,100,5472,100C5376,100,5280,100,5184,100C5088,100,4992,100,4896,100C4800,100,4704,100,4608,100C4512,100,4416,100,4320,100C4224,100,4128,100,4032,100C3936,100,3840,100,3744,100C3648,100,3552,100,3456,100C3360,100,3264,100,3168,100C3072,100,2976,100,2880,100C2784,100,2688,100,2592,100C2496,100,2400,100,2304,100C2208,100,2112,100,2016,100C1920,100,1824,100,1728,100C1632,100,1536,100,1440,100C1344,100,1248,100,1152,100C1056,100,960,100,864,100C768,100,672,100,576,100C480,100,384,100,288,100C192,100,96,100,48,100L0,100Z"/></svg>